<?xml version="1.0" encoding="UTF-8"?>
<!DOCTYPE svg PUBLIC "-//W3C//DTD SVG 1.1//EN" "http://www.w3.org/Graphics/SVG/1.1/DTD/svg11.dtd">
<svg xmlns="http://www.w3.org/2000/svg" version="1.1" width="587px" height="587px" style="shape-rendering:geometricPrecision; text-rendering:geometricPrecision; image-rendering:optimizeQuality; fill-rule:evenodd; clip-rule:evenodd" xmlns:xlink="http://www.w3.org/1999/xlink">
<g><path style="opacity:0.981" fill="#00adee" d="M 273.5,62.5 C 275.5,62.5 277.5,62.5 279.5,62.5C 277.168,76.836 274.668,91.1694 272,105.5C 266.783,149.773 267.616,193.94 274.5,238C 273.546,250.907 267.879,261.241 257.5,269C 224.703,297.412 188.036,319.745 147.5,336C 141.357,338.49 135.357,338.49 129.5,336C 127.805,333.776 126.805,331.276 126.5,328.5C 127.807,321.553 129.973,314.887 133,308.5C 153.264,264.635 175.597,221.968 200,180.5C 223.771,140.607 248.271,101.273 273.5,62.5 Z"/></g>
<g><path style="opacity:0.981" fill="#00adee" d="M 295.5,67.5 C 301.421,66.8774 306.254,68.8774 310,73.5C 338.907,112.965 365.574,153.965 390,196.5C 415.178,240.019 438.678,284.519 460.5,330C 459.557,332.981 457.557,333.981 454.5,333C 421.84,301.49 384.84,276.156 343.5,257C 331.949,251.725 320.283,246.725 308.5,242C 298.235,235.366 292.402,225.866 291,213.5C 282.699,171.051 281.366,128.384 287,85.5C 287.474,78.2245 290.307,72.2245 295.5,67.5 Z"/></g>
<g><path style="opacity:0.982" fill="#00adee" d="M 297.5,265.5 C 302.511,265.334 307.511,265.501 312.5,266C 354.782,278.474 393.449,297.808 428.5,324C 433.634,328.133 438.468,332.633 443,337.5C 447.171,348.291 443.338,354.125 431.5,355C 394.634,359.358 357.634,361.691 320.5,362C 266.136,362.771 211.803,361.771 157.5,359C 149.867,358.89 142.367,358.057 135,356.5C 134.257,354.559 134.424,352.726 135.5,351C 191.358,334.746 241.358,308.079 285.5,271C 289.481,268.838 293.481,267.005 297.5,265.5 Z"/></g>
<g><path style="opacity:0.941" fill="#6c6e6f" d="M 105.5,447.5 C 113.426,446.498 120.759,447.998 127.5,452C 129.041,453.579 130.208,455.413 131,457.5C 137.242,448.637 145.742,445.471 156.5,448C 164.973,449.806 170.14,454.973 172,463.5C 174.768,483.762 173.601,503.762 168.5,523.5C 162.794,523.829 157.128,523.495 151.5,522.5C 153.786,516.357 155.286,510.024 156,503.5C 156.667,491.833 156.667,480.167 156,468.5C 153.799,462.149 149.632,460.315 143.5,463C 141.683,464.8 140.516,466.966 140,469.5C 139.667,481.167 139.333,492.833 139,504.5C 137.349,514.815 131.516,521.315 121.5,524C 113.652,525.088 105.985,524.421 98.5,522C 91.4424,517.059 87.6091,510.225 87,501.5C 86.1569,489.128 86.4902,476.795 88,464.5C 90.4579,455.207 96.2912,449.54 105.5,447.5 Z M 109.5,461.5 C 115.242,460.456 119.409,462.456 122,467.5C 122.667,479.833 122.667,492.167 122,504.5C 121.602,507.232 120.102,509.065 117.5,510C 110.06,512.53 105.56,510.03 104,502.5C 103.333,491.833 103.333,481.167 104,470.5C 104.339,466.47 106.173,463.47 109.5,461.5 Z"/></g>
<g><path style="opacity:0.946" fill="#6c6e6f" d="M 205.5,447.5 C 215.738,446.017 224.905,448.351 233,454.5C 236.68,459.542 238.68,465.208 239,471.5C 240.586,489.136 239.086,506.469 234.5,523.5C 228.794,523.829 223.128,523.495 217.5,522.5C 222.207,505.485 223.707,488.152 222,470.5C 220.308,462.07 215.474,459.57 207.5,463C 205.683,464.8 204.516,466.966 204,469.5C 203.333,480.5 203.333,491.5 204,502.5C 204.672,509.362 206.172,516.029 208.5,522.5C 202.872,523.495 197.206,523.829 191.5,523.5C 186.352,504.105 185.185,484.439 188,464.5C 190.458,455.207 196.291,449.54 205.5,447.5 Z"/></g>
<g><path style="opacity:0.944" fill="#6c6e6f" d="M 334.5,447.5 C 342.482,446.782 350.149,447.949 357.5,451C 364.292,456.082 367.792,462.915 368,471.5C 369.449,488.087 368.115,504.42 364,520.5C 363.626,521.416 363.126,522.25 362.5,523C 357.177,523.499 351.844,523.666 346.5,523.5C 351.147,506.139 352.647,488.472 351,470.5C 349.308,462.07 344.474,459.57 336.5,463C 334.683,464.8 333.516,466.966 333,469.5C 332.333,480.5 332.333,491.5 333,502.5C 333.672,509.362 335.172,516.029 337.5,522.5C 331.872,523.495 326.206,523.829 320.5,523.5C 315.799,505.819 314.299,487.819 316,469.5C 317.291,457.844 323.458,450.51 334.5,447.5 Z"/></g>
<g><path style="opacity:0.946" fill="#6c6e6f" d="M 466.5,447.5 C 476.738,446.017 485.905,448.351 494,454.5C 497.68,459.542 499.68,465.208 500,471.5C 501.586,489.136 500.086,506.469 495.5,523.5C 489.794,523.829 484.128,523.495 478.5,522.5C 483.207,505.48 484.707,488.147 483,470.5C 481.308,462.07 476.474,459.57 468.5,463C 466.683,464.8 465.516,466.966 465,469.5C 464.333,480.5 464.333,491.5 465,502.5C 465.672,509.362 467.172,516.029 469.5,522.5C 463.872,523.495 458.206,523.829 452.5,523.5C 447.352,504.105 446.185,484.439 449,464.5C 451.458,455.207 457.291,449.54 466.5,447.5 Z"/></g>
<g><path style="opacity:0.941" fill="#6c6e6f" d="M 259.5,448.5 C 265.167,448.5 270.833,448.5 276.5,448.5C 276.34,450.199 276.506,451.866 277,453.5C 280.086,456.517 283.086,459.517 286,462.5C 286.982,467.126 287.816,471.792 288.5,476.5C 296.301,479.135 301.134,484.468 303,492.5C 305.164,518.323 293.331,528.823 267.5,524C 255.734,520.51 250.068,512.51 250.5,500C 250.088,485.922 256.755,477.756 270.5,475.5C 270.662,473.473 270.495,471.473 270,469.5C 266.297,466.133 262.964,462.466 260,458.5C 259.502,455.183 259.335,451.85 259.5,448.5 Z M 275.5,488.5 C 283.091,488.591 286.758,492.424 286.5,500C 285.299,510.964 279.799,513.797 270,508.5C 266.667,502.833 266.667,497.167 270,491.5C 271.876,490.391 273.709,489.391 275.5,488.5 Z"/></g>
<g><path style="opacity:0.946" fill="#6c6e6f" d="M 381.5,448.5 C 387.167,448.5 392.833,448.5 398.5,448.5C 398.333,467.17 398.5,485.836 399,504.5C 403.216,511.676 409.049,513.176 416.5,509C 419.092,505.191 419.925,501.024 419,496.5C 415.086,490.015 412.92,483.015 412.5,475.5C 418.167,475.5 423.833,475.5 429.5,475.5C 432.43,483.628 434.763,491.962 436.5,500.5C 436.847,513.344 430.847,521.177 418.5,524C 412.167,524.667 405.833,524.667 399.5,524C 389.209,522.043 383.376,515.876 382,505.5C 381.5,486.503 381.333,467.503 381.5,448.5 Z"/></g>
</svg>
